<?xml version="1.0" encoding="utf-8" ?><svg xmlns="http://www.w3.org/2000/svg" xmlns:xlink="http://www.w3.org/1999/xlink" width="1024" height="1024" viewBox="0 0 1024 1024"><clipPath id="cl_3"><rect x="7.6293945e-05" y="1.5258789e-05" width="1023.9999" height="1024"/></clipPath><g clip-path="url(#cl_3)"><defs><linearGradient id="gradient_0" gradientUnits="userSpaceOnUse" x1="1799.991" y1="3550.0911" x2="2281.9104" y2="560.92566"><stop offset="0" stop-color="#1F2F4A"/><stop offset="1" stop-color="#304F63"/></linearGradient></defs><path fill="url(#gradient_0)" transform="matrix(0.34618 0 0 0.34618 -196.976 -196.976)" d="M2833.11 633.49L2835.09 636.111C2830.8 657.998 2747.48 787.693 2729.01 819.426C2697.11 874.592 2665.71 930.046 2634.82 985.783C2480.9 1265.28 2328.65 1545.7 2178.08 1827.02C2247.37 1856.48 2321.56 1878.71 2393.56 1900.56C2480.3 1926.69 2566.81 1953.59 2653.07 1981.25C2692.9 1994.05 2733.63 2005.8 2772.76 2020.54L2773.1 2023.93C2766.1 2033.72 2754.64 2042.25 2745.82 2050.59L2671.83 2119.8C2568.88 2219.9 2464.65 2318.65 2359.15 2416.06L2054.46 2706.12C1889.84 2859.95 1721.14 3010.11 1559.74 3167.29C1493.62 3231.68 1427.48 3296.74 1363.77 3363.51C1327.75 3401.25 1293.42 3440.57 1257.48 3478.39C1257.18 3476.94 1256.33 3475.5 1256.58 3474.03C1259.53 3457.06 1360.81 3286.94 1378.86 3254.8C1433.17 3158.14 1490.11 3062.71 1543.23 2965.41C1605.66 2851.06 1662.73 2733.67 1723.35 2618.37C1785.63 2502.3 1848.54 2386.58 1912.09 2271.2C1893.1 2261.28 1871.01 2255.48 1850.62 2248.85L1735.9 2212.62C1633.76 2180.02 1532.35 2145.24 1429.88 2113.69C1407.68 2106.85 1385.46 2099.85 1363.05 2093.74C1348.74 2089.85 1330.82 2087.61 1317.53 2081.31C1313.38 2079.35 1314.67 2080.76 1313.17 2076.81C1322.8 2060.16 1387.17 2005.26 1405.28 1988.11C1498.7 1898.74 1592.64 1809.92 1687.09 1721.63L2695.99 772.361C2724.05 745.825 2751.59 718.751 2778.61 691.154C2796.92 672.094 2814.07 651.826 2833.11 633.49ZM2179.37 2176.43C2161.13 2219.49 2107.88 2287.04 2079.35 2329.28C2033.11 2397.76 1989.35 2467.71 1944.63 2537.16C1933.95 2553.74 1906.67 2588.21 1903.05 2606.61L1905.76 2607.93L1908.3 2606.77C1974.52 2547.55 2037.34 2485.45 2101.47 2424.06L2262.43 2272.61C2293.22 2242.98 2324.36 2213.7 2355.84 2184.81C2386.6 2156.74 2419.19 2128.66 2447.34 2097.98C2402.27 2072.98 2325.87 2054.41 2274.47 2038.02L1908.6 1922.81C1927.2 1886.05 1953.78 1850.35 1976.54 1815.95C2015.15 1757.96 2053.24 1699.63 2090.8 1640.95C2112.82 1606.56 2139.61 1568.83 2152.76 1529.91C2151.97 1529.05 2151.31 1527.97 2150.26 1527.46C2101.92 1568.07 1650.36 1981.73 1646.8 1996.92C1658.74 2007.31 1723.16 2023.92 1743.64 2030.53C1853.82 2066.06 1965.6 2098.38 2074.59 2137.3C2109.39 2149.72 2146.15 2160.25 2179.37 2176.43Z"/><defs><linearGradient id="gradient_1" gradientUnits="userSpaceOnUse" x1="2300.0886" y1="3316.6145" x2="2284.3271" y2="1326.1989"><stop offset="0" stop-color="#329DB6"/><stop offset="1" stop-color="#5AE5B6"/></linearGradient></defs><path fill="url(#gradient_1)" transform="matrix(0.34618 0 0 0.34618 -196.976 -196.976)" d="M2631.12 1181.65C2877.16 1368.49 3042.56 1606.45 3084.97 1916.84C3120.79 2179.06 3044.31 2463.64 2884.11 2674.03C2666.44 2959.9 2364.22 3074.53 2033.05 3179.7C1891.49 3224.65 1734.91 3271.52 1622.27 3373.05C1615.77 3373.66 1581.32 3408.72 1573.32 3415.21C1578.25 3396.43 1589.49 3380.95 1595.31 3362.64L1591.72 3359.59C1592.71 3355.67 1594.83 3352.1 1596.63 3348.48C1621.08 3300.59 1652.3 3256.46 1689.31 3217.46C1769.37 3134.41 1868.32 3066.57 1961.57 2999.26L2322.92 2739.34C2428.86 2661.62 2535.68 2582.71 2628.29 2489.09C2764.07 2351.83 2857.06 2193.44 2855.14 1994.84C2853.25 1799.97 2764.85 1620.72 2629.18 1483.75C2613.51 1467.93 2597.37 1452 2580.09 1437.96C2560.63 1422.14 2539.01 1407.5 2521.29 1389.84C2520.72 1389.28 2520.17 1388.7 2519.61 1388.13C2530.79 1363.19 2546.39 1339.59 2559.05 1315.25C2575.03 1287.99 2590.18 1260.25 2604.5 1232.08C2613.06 1215.45 2620.76 1197.19 2631.12 1181.65Z"/><path fill="#175E6A" transform="matrix(0.34618 0 0 0.34618 -196.976 -196.976)" d="M2631.12 1181.65C2877.16 1368.49 3042.56 1606.45 3084.97 1916.84C3120.79 2179.06 3044.31 2463.64 2884.11 2674.03C2666.44 2959.9 2364.22 3074.53 2033.05 3179.7C1891.49 3224.65 1734.91 3271.52 1622.27 3373.05C1615.77 3373.66 1581.32 3408.72 1573.32 3415.21C1578.25 3396.43 1589.49 3380.95 1595.31 3362.64L1591.72 3359.59C1592.71 3355.67 1594.83 3352.1 1596.63 3348.48L1597.81 3352.29C1603.81 3350.73 1610.23 3339.39 1616.11 3335.54C1619.34 3334.08 1714.56 3256.19 1715.83 3254.38C1739.99 3225.89 1916.1 3150.38 1955.94 3137.35C2008.48 3115.76 2062.35 3096.79 2115.64 3077.11C2126.72 3070.56 2141.17 3066.22 2153.16 3061.03C2192.66 3043.92 2232.86 3028.63 2271.83 3010.3C2488.65 2908.31 2693.04 2792.47 2823.88 2585.01C2957.62 2372.96 3008.91 2119.03 2953.1 1873.12C2900.07 1642.65 2758.54 1442.27 2559.05 1315.25C2575.03 1287.99 2590.18 1260.25 2604.5 1232.08C2613.06 1215.45 2620.76 1197.19 2631.12 1181.65Z"/><path fill="#0F213E" transform="matrix(0.34618 0 0 0.34618 -196.976 -196.976)" d="M2115.64 3077.11C2107.99 3089.77 1988.27 3131.18 1966.83 3136.87C1963.72 3137.7 1960.8 3138.18 1957.62 3138.65L1955.94 3137.35C2008.48 3115.76 2062.35 3096.79 2115.64 3077.11Z"/><path fill="#0F213E" transform="matrix(0.34618 0 0 0.34618 -196.976 -196.976)" d="M1616.11 3335.54C1635.45 3307.48 1685.2 3271.35 1715.83 3254.38C1714.56 3256.19 1619.34 3334.08 1616.11 3335.54Z"/><path fill="#4ED1B1" transform="matrix(0.34618 0 0 0.34618 -196.976 -196.976)" d="M1461.61 2904.56C1342.61 2831.81 1215.94 2685.08 1143.24 2566.43C1004.72 2340.37 972.142 2056.09 1033.88 1800.03C1106.22 1499.99 1317.55 1254.51 1585.27 1107.23C1695.3 1046.7 1812.17 1003.29 1930.82 962.921C2079.58 912.305 2261.05 867.214 2394.31 785.158C2442.73 755.34 2482.28 721.682 2513.64 674.018C2519.88 664.526 2527.82 653.448 2530.35 642.222C2531.77 635.918 2531.75 631.789 2536.96 627.803C2538.02 629.485 2538.26 629.613 2538.79 631.864C2543.89 653.409 2509.04 738.362 2496.38 759.742C2496.05 760.29 2495.71 760.829 2495.38 761.373C2428.15 880.677 2312.2 970.491 2203.67 1050.55C2086.51 1136.98 1964.58 1216.92 1843.79 1298.15C1597.76 1463.61 1321.18 1652.57 1258.95 1963.68C1237.21 2072.36 1244.7 2183.33 1274.32 2289.8C1321.57 2459.64 1435.19 2604.01 1571.55 2712.54C1557.94 2735.7 1544.12 2758.77 1530.84 2782.12C1503.99 2819.13 1487.56 2866.13 1461.61 2904.56Z"/><defs><linearGradient id="gradient_2" gradientUnits="userSpaceOnUse" x1="1707.5261" y1="2902.0557" x2="1799.3049" y2="624.63397"><stop offset="0" stop-color="#165364"/><stop offset="1" stop-color="#128983"/></linearGradient></defs><path fill="url(#gradient_2)" transform="matrix(0.34618 0 0 0.34618 -196.976 -196.976)" d="M1461.61 2904.56C1342.61 2831.81 1215.94 2685.08 1143.24 2566.43C1004.72 2340.37 972.142 2056.09 1033.88 1800.03C1106.22 1499.99 1317.55 1254.51 1585.27 1107.23C1695.3 1046.7 1812.17 1003.29 1930.82 962.921C2079.58 912.305 2261.05 867.214 2394.31 785.158C2442.73 755.34 2482.28 721.682 2513.64 674.018C2519.88 664.526 2527.82 653.448 2530.35 642.222C2531.77 635.918 2531.75 631.789 2536.96 627.803C2538.02 629.485 2538.26 629.613 2538.79 631.864C2543.89 653.409 2509.04 738.362 2496.38 759.742C2496.05 760.29 2495.71 760.829 2495.38 761.373L2493.65 757.476C2478.32 766.349 2459.63 793.68 2444.31 806.957C2395.5 849.259 2341.2 882.529 2283.07 910.292C2148.2 974.706 1993.13 1016.02 1852.47 1072.44C1695.01 1135.61 1537.77 1223.05 1415.26 1342C1371.76 1384.23 1332.13 1432.16 1296.22 1480.93C1227.45 1572.88 1176.62 1676.96 1146.38 1787.72C1086.06 2020.13 1119.79 2266.96 1240.26 2474.66C1293.66 2567.01 1362.93 2649.23 1444.87 2717.54C1472.49 2740.28 1502.57 2760.12 1530.84 2782.12C1503.99 2819.13 1487.56 2866.13 1461.61 2904.56Z"/><path fill="#0F213E" fill-opacity="0.90588236" transform="matrix(0.34618 0 0 0.34618 -196.976 -196.976)" d="M1591.72 3359.59L1595.31 3362.64C1589.49 3380.95 1578.25 3396.43 1573.32 3415.21C1581.32 3408.72 1615.77 3373.66 1622.27 3373.05C1617.13 3383.37 1598.32 3400.08 1590.36 3409.9C1575.98 3427.61 1562.95 3446.23 1550.08 3465.04C1556.64 3441.03 1578.48 3378.72 1591.72 3359.59Z"/></g></svg>